<?xml version="1.0" encoding="UTF-8"?>
<svg version="1.1" xmlns="http://www.w3.org/2000/svg" width="1200" height="720">
<path d="M0 0 C396 0 792 0 1200 0 C1200 237.6 1200 475.2 1200 720 C804 720 408 720 0 720 C0 482.4 0 244.8 0 0 Z " fill="#FEFEFE" transform="translate(0,0)"/>
<path d="M0 0 C113.19 0 226.38 0 343 0 C343 237.6 343 475.2 343 720 C229.81 720 116.62 720 0 720 C0 482.4 0 244.8 0 0 Z " fill="#CE2632" transform="translate(857,0)"/>
<path d="M0 0 C113.19 0 226.38 0 343 0 C343 237.6 343 475.2 343 720 C229.81 720 116.62 720 0 720 C0 482.4 0 244.8 0 0 Z " fill="#307AB0" transform="translate(0,0)"/>
<path d="M0 0 C12.21 0 24.42 0 37 0 C37.33 25.74 37.66 51.48 38 78 C65.72 78.33 93.44 78.66 122 79 C122 91.21 122 103.42 122 116 C94.28 116 66.56 116 38 116 C38 171.77 38 227.54 38 285 C25.46 285 12.92 285 0 285 C0 229.23 0 173.46 0 116 C-27.72 116 -55.44 116 -84 116 C-84 103.79 -84 91.58 -84 79 C-56.28 79 -28.56 79 0 79 C0 52.93 0 26.86 0 0 Z " fill="#010101" transform="translate(581,194)"/>
<path d="M0 0 C3 0.25 3 0.25 5 2.25 C5.22705078 5.32275391 5.22705078 5.32275391 5.1953125 9.2265625 C5.1924826 9.91181 5.18965271 10.5970575 5.18673706 11.30307007 C5.17553281 13.49389027 5.15042859 15.68430316 5.125 17.875 C5.11497048 19.3593691 5.10584458 20.8437446 5.09765625 22.328125 C5.07559294 25.96888261 5.04106176 29.60940156 5 33.25 C5.69689941 33.28375732 6.39379883 33.31751465 7.11181641 33.35229492 C13.49143832 33.77691438 18.61004578 34.82901773 24.375 37.5625 C25.04660156 37.85833984 25.71820312 38.15417969 26.41015625 38.45898438 C29.60107593 39.91025727 32.01639485 41.26378765 34.7265625 43.54296875 C36.78051524 45.47898282 36.78051524 45.47898282 38.88964844 45.09301758 C41.58712918 44.01546077 43.01985959 42.55364533 45.0390625 40.46875 C45.78414062 39.70949219 46.52921875 38.95023438 47.296875 38.16796875 C48.06515625 37.37003906 48.8334375 36.57210937 49.625 35.75 C51.15673023 34.17501493 52.69048522 32.60199569 54.2265625 31.03125 C54.90283691 30.33064453 55.57911133 29.63003906 56.27587891 28.90820312 C58.64089168 26.6336114 59.68300682 26.2764161 63 26 C63.99 26.0825 64.98 26.165 66 26.25 C68 29.25 68 29.25 67.89306641 31.65600586 C66.76835722 34.92282791 65.2304671 36.40117389 62.7109375 38.75390625 C61.85242188 39.57697266 60.99390625 40.40003906 60.109375 41.24804688 C58.28035179 42.96340935 56.44960948 44.67694058 54.6171875 46.38867188 C53.76125 47.21044922 52.9053125 48.03222656 52.0234375 48.87890625 C50.83113525 49.9937439 50.83113525 49.9937439 49.61474609 51.13110352 C47.74864988 53.09115981 47.74864988 53.09115981 48.16918945 55.3840332 C49.19811167 57.69495078 50.44351652 59.7470105 51.8125 61.875 C57.05616075 70.39594872 60.07326237 78.25004882 60 88.25 C60.89307861 88.23952637 61.78615723 88.22905273 62.70629883 88.21826172 C66.02175477 88.18416408 69.33702421 88.15909363 72.65258789 88.14013672 C74.08718812 88.130083 75.52176789 88.11643806 76.95629883 88.09912109 C79.01909438 88.07484451 81.08161885 88.06351081 83.14453125 88.0546875 C84.38565674 88.04421387 85.62678223 88.03374023 86.90551758 88.02294922 C90 88.25 90 88.25 93 90.25 C93.38596516 93.27339376 93.61127879 95.31597692 91.9050293 97.9230957 C89.02335472 99.93025979 86.62003083 99.58696242 83.14453125 99.54296875 C82.48289474 99.53872391 81.82125824 99.53447906 81.13957214 99.53010559 C79.0301309 99.51333693 76.92165154 99.47569099 74.8125 99.4375 C73.38087319 99.42245068 71.94923138 99.4087627 70.51757812 99.39648438 C67.01140712 99.3634403 63.50579746 99.31167167 60 99.25 C59.96624268 99.87543701 59.93248535 100.50087402 59.89770508 101.14526367 C59.45009161 107.21412287 58.2596722 112.06764996 55.6875 117.5625 C55.24374023 118.57666992 55.24374023 118.57666992 54.79101562 119.61132812 C53.34023051 122.82310943 51.9966789 125.25395477 49.70703125 127.98046875 C47.77087095 130.03084511 47.77087095 130.03084511 48.15698242 132.1394043 C49.23449374 134.83708323 50.69623569 136.26974436 52.78125 138.2890625 C53.54050781 139.03414062 54.29976562 139.77921875 55.08203125 140.546875 C55.87996094 141.31515625 56.67789063 142.0834375 57.5 142.875 C59.07498507 144.40673023 60.64800431 145.94048522 62.21875 147.4765625 C62.91935547 148.15283691 63.61996094 148.82911133 64.34179688 149.52587891 C66.6163886 151.89089168 66.9735839 152.93300682 67.25 156.25 C67.1675 157.24 67.085 158.23 67 159.25 C64 161.25 64 161.25 61.59399414 161.14306641 C58.32717209 160.01835722 56.84882611 158.4804671 54.49609375 155.9609375 C53.67302734 155.10242188 52.84996094 154.24390625 52.00195312 153.359375 C50.28659065 151.53035179 48.57305942 149.69960948 46.86132812 147.8671875 C46.03955078 147.01125 45.21777344 146.1553125 44.37109375 145.2734375 C43.2562561 144.08113525 43.2562561 144.08113525 42.11889648 142.86474609 C40.15855267 140.99846447 40.15855267 140.99846447 37.86376953 141.41918945 C35.56783257 142.44264681 33.54494189 143.69110042 31.4375 145.0625 C22.85383174 150.3059743 14.94097634 152.4552574 5 153.25 C5.01047363 154.14307861 5.02094727 155.03615723 5.03173828 155.95629883 C5.06583592 159.27175477 5.09090637 162.58702421 5.10986328 165.90258789 C5.119917 167.33718812 5.13356194 168.77176789 5.15087891 170.20629883 C5.17515549 172.26909438 5.18648919 174.33161885 5.1953125 176.39453125 C5.20578613 177.63565674 5.21625977 178.87678223 5.22705078 180.15551758 C5 183.25 5 183.25 3 186.25 C0 186.5625 0 186.5625 -3 186.25 C-5 184.25 -5 184.25 -5.22705078 181.17724609 C-5.21657715 179.88898926 -5.20610352 178.60073242 -5.1953125 177.2734375 C-5.1924826 176.58819 -5.18965271 175.9029425 -5.18673706 175.19692993 C-5.17553281 173.00610973 -5.15042859 170.81569684 -5.125 168.625 C-5.11497048 167.1406309 -5.10584458 165.6562554 -5.09765625 164.171875 C-5.07559294 160.53111739 -5.04106176 156.89059844 -5 153.25 C-6.09473633 153.26369629 -7.18947266 153.27739258 -8.31738281 153.29150391 C-17.92445636 153.18323007 -30.17191718 148.07808282 -37 141.25 C-40.95279969 141.47798608 -42.75325513 143.74515703 -45.3359375 146.5390625 C-46.56183594 147.82683594 -46.56183594 147.82683594 -47.8125 149.140625 C-49.52109504 150.96382093 -51.22164644 152.79458829 -52.9140625 154.6328125 C-53.73390625 155.48875 -54.55375 156.3446875 -55.3984375 157.2265625 C-56.50711182 158.41886475 -56.50711182 158.41886475 -57.63818359 159.63525391 C-60 161.25 -60 161.25 -63.22509766 161.06396484 C-66 160.25 -66 160.25 -67 159.25 C-67.59201791 156.21590821 -67.57707643 154.13735383 -65.859375 151.49609375 C-63.03223786 148.20920373 -59.95999671 145.20349107 -56.828125 142.2109375 C-56.27995117 141.68064941 -55.73177734 141.15036133 -55.16699219 140.60400391 C-54.06529705 139.54393697 -52.9514247 138.49636629 -51.82519531 137.46240234 C-50.08073184 135.84748936 -50.08073184 135.84748936 -48 133.25 C-47.96831817 129.89172572 -50.02803701 127.39882348 -51.8125 124.625 C-56.9508242 116.20111273 -59.22396064 109.04259468 -60 99.25 C-60.89307861 99.26571045 -61.78615723 99.2814209 -62.70629883 99.29760742 C-66.02178756 99.34875439 -69.33685675 99.38635812 -72.65258789 99.41479492 C-74.08722552 99.42987589 -75.52181708 99.4503438 -76.95629883 99.47631836 C-79.01915859 99.51273437 -81.08140858 99.52973243 -83.14453125 99.54296875 C-84.38565674 99.5586792 -85.62678223 99.57438965 -86.90551758 99.59057617 C-90 99.25 -90 99.25 -91.90893555 97.9230957 C-93.59087536 95.3439206 -93.31841346 93.24308653 -93 90.25 C-91 88.25 -91 88.25 -87.92724609 88.02294922 C-86.63898926 88.03342285 -85.35073242 88.04389648 -84.0234375 88.0546875 C-83.33819 88.0575174 -82.6529425 88.06034729 -81.94692993 88.06326294 C-79.75610973 88.07446719 -77.56569684 88.09957141 -75.375 88.125 C-73.8906309 88.13502952 -72.4062554 88.14415542 -70.921875 88.15234375 C-67.28111739 88.17440706 -63.64059844 88.20893824 -60 88.25 C-60.01369629 87.15526367 -60.02739258 86.06052734 -60.04150391 84.93261719 C-59.93323007 75.32554364 -54.82808282 63.07808282 -48 56.25 C-48.22798608 52.29720031 -50.49515703 50.49674487 -53.2890625 47.9140625 C-54.14757812 47.09679687 -55.00609375 46.27953125 -55.890625 45.4375 C-57.71382093 43.72890496 -59.54458829 42.02835356 -61.3828125 40.3359375 C-62.23875 39.51609375 -63.0946875 38.69625 -63.9765625 37.8515625 C-64.77143066 37.11244629 -65.56629883 36.37333008 -66.38525391 35.61181641 C-68 33.25 -68 33.25 -67.81396484 30.02490234 C-67 27.25 -67 27.25 -66 26.25 C-62.96590821 25.65798209 -60.88735383 25.67292357 -58.24609375 27.390625 C-54.95920373 30.21776214 -51.95349107 33.29000329 -48.9609375 36.421875 C-48.16550537 37.24413574 -48.16550537 37.24413574 -47.35400391 38.08300781 C-46.29393697 39.18470295 -45.24636629 40.2985753 -44.21240234 41.42480469 C-42.59748936 43.16926816 -42.59748936 43.16926816 -40 45.25 C-36.64172572 45.28168183 -34.14882348 43.22196299 -31.375 41.4375 C-22.85405128 36.19383925 -14.99995118 33.17673763 -5 33.25 C-5.01047363 32.3213916 -5.02094727 31.3927832 -5.03173828 30.43603516 C-5.06579204 26.9957431 -5.09088493 23.55562973 -5.10986328 20.11523438 C-5.11993043 18.6252968 -5.13358518 17.13537903 -5.15087891 15.64550781 C-5.17509653 13.50580972 -5.18647564 11.36637247 -5.1953125 9.2265625 C-5.20578613 7.93830566 -5.21625977 6.65004883 -5.22705078 5.32275391 C-4.91835931 1.14512933 -4.18035206 0.34836267 0 0 Z " fill="#F0DF0E" transform="translate(600,514.75)"/>
<path d="M0 0 C2.25386256 2.25386256 2.71547759 3.67486013 3.69580078 6.67749023 C4.17607224 8.1342643 4.17607224 8.1342643 4.66604614 9.62046814 C5.00570404 10.67254959 5.34536194 11.72463104 5.6953125 12.80859375 C6.04761932 13.88625504 6.39992615 14.96391632 6.76290894 16.07423401 C7.50714509 18.35558191 8.24836594 20.63791534 8.98681641 22.92114258 C10.12000519 26.42206879 11.26433173 29.91920735 12.41015625 33.41601562 C13.13087645 35.62999095 13.85095031 37.84417681 14.5703125 40.05859375 C14.91401886 41.10865097 15.25772522 42.15870819 15.61184692 43.24058533 C15.92572357 44.2149202 16.23960022 45.18925507 16.56298828 46.19311523 C16.98029709 47.47979347 16.98029709 47.47979347 17.40603638 48.79246521 C18 51 18 51 18 54 C37.14 54 56.28 54 76 54 C73.21966655 56.78033345 71.16946699 58.71698412 68.015625 60.8125 C66.87130005 61.58122437 66.87130005 61.58122437 65.70385742 62.36547852 C64.89408447 62.90487061 64.08431152 63.4442627 63.25 64 C56.09592001 68.82237985 49.10775098 73.80214666 42.25292969 79.04101562 C38.58415368 81.84092238 34.86862911 84.48213266 31 87 C32.33439949 93.51488862 34.11673389 99.68188668 36.29296875 105.9609375 C36.92926904 107.83195217 37.56532994 109.70304826 38.20117188 111.57421875 C39.19867788 114.4919053 40.19906241 117.4085457 41.20385742 120.32373047 C42.17886944 123.15853589 43.1428377 125.99690832 44.10546875 128.8359375 C44.41058884 129.71091888 44.71570892 130.58590027 45.03007507 131.48739624 C45.44094109 132.70478989 45.44094109 132.70478989 45.86010742 133.94677734 C46.10500412 134.65909515 46.34990082 135.37141296 46.60221863 136.10531616 C47 138 47 138 46 141 C36.38064737 134.24210036 26.80262576 127.43232772 17.28222656 120.53564453 C11.89267296 116.63471376 6.47382078 112.7821626 1 109 C-5.48389203 112.90132487 -11.60313087 117.11584656 -17.625 121.6875 C-23.45742421 126.11314377 -29.34089759 130.45105452 -35.3125 134.6875 C-36.0358252 135.20465576 -36.75915039 135.72181152 -37.50439453 136.25463867 C-38.51735596 136.96970581 -38.51735596 136.96970581 -39.55078125 137.69921875 C-40.14544189 138.12033936 -40.74010254 138.54145996 -41.3527832 138.9753418 C-43 140 -43 140 -46 141 C-43.35472347 130.08123304 -39.48877467 119.53942542 -35.8125 108.9375 C-34.83204577 106.10814801 -33.85266933 103.27845046 -32.87712097 100.44740295 C-32.27351849 98.69577555 -31.66709629 96.94511674 -31.05757141 95.19554138 C-30.78696396 94.41034622 -30.51635651 93.62515106 -30.23754883 92.81616211 C-29.87805901 91.78005043 -29.87805901 91.78005043 -29.51130676 90.7230072 C-28.90516987 88.97998579 -28.90516987 88.97998579 -29 87 C-30.51209776 85.69644595 -30.51209776 85.69644595 -32.5234375 84.41796875 C-33.28873779 83.90435791 -34.05403809 83.39074707 -34.8425293 82.86157227 C-35.67824463 82.30912842 -36.51395996 81.75668457 -37.375 81.1875 C-39.11981628 80.0149927 -40.86327208 78.84045869 -42.60546875 77.6640625 C-43.50056152 77.05981445 -44.3956543 76.45556641 -45.31787109 75.83300781 C-49.49238466 72.98008155 -53.59461295 70.03090558 -57.6875 67.0625 C-58.40405762 66.54389404 -59.12061523 66.02528809 -59.85888672 65.4909668 C-61.91082668 64.00054229 -63.95649261 62.50196082 -66 61 C-66.75748535 60.44683105 -67.5149707 59.89366211 -68.29541016 59.32373047 C-69.02937012 58.78248535 -69.76333008 58.24124023 -70.51953125 57.68359375 C-71.18702393 57.1930249 -71.8545166 56.70245605 -72.54223633 56.19702148 C-73.02329834 55.80200439 -73.50436035 55.4069873 -74 55 C-74 54.67 -74 54.34 -74 54 C-55.19 54 -36.38 54 -17 54 C-15.515 48.06 -15.515 48.06 -14 42 C-12.91800003 38.52733091 -11.81273558 35.08302521 -10.64453125 31.640625 C-10.33803146 30.72537048 -10.03153168 29.81011597 -9.71574402 28.86712646 C-8.7522782 25.99329144 -7.78252057 23.1216283 -6.8125 20.25 C-6.15127184 18.28139132 -5.4904611 16.31264237 -4.83007812 14.34375 C-3.2248608 9.5608691 -1.61400397 4.7799226 0 0 Z " fill="#EDDD0F" transform="translate(171,537)"/>
<path d="M0 0 C1.81998886 2.72998328 2.69305156 4.73271473 3.69580078 7.80688477 C4.17607224 9.26838707 4.17607224 9.26838707 4.66604614 10.75941467 C5.00570404 11.80947189 5.34536194 12.85952911 5.6953125 13.94140625 C6.04761932 15.02002426 6.39992615 16.09864227 6.76290894 17.20994568 C7.50641936 19.48974945 8.24766433 21.77029312 8.98681641 24.05151367 C10.12218591 27.55381931 11.26560567 31.05341975 12.41015625 34.55273438 C13.13068762 36.76546899 13.85075557 38.97835457 14.5703125 41.19140625 C14.91401886 42.2434877 15.25772522 43.29556915 15.61184692 44.37953186 C15.92572357 45.35071457 16.23960022 46.32189728 16.56298828 47.32250977 C16.84119415 48.17949966 17.11940002 49.03648956 17.40603638 49.91944885 C18 52 18 52 18 54 C36.81 54 55.62 54 75 54 C69.37868481 59.62131519 69.37868481 59.62131519 66.42578125 61.65625 C65.76666748 62.11523682 65.10755371 62.57422363 64.4284668 63.04711914 C63.38106323 63.76629517 63.38106323 63.76629517 62.3125 64.5 C60.80403104 65.54983864 59.29624259 66.60065562 57.7890625 67.65234375 C57.00821289 68.19616699 56.22736328 68.73999023 55.42285156 69.30029297 C51.31587676 72.18146574 47.25146128 75.12110872 43.1875 78.0625 C42.05018433 78.88427734 42.05018433 78.88427734 40.88989258 79.72265625 C36.84738009 82.63839933 36.84738009 82.63839933 32.8918457 85.66967773 C31 87 31 87 29 87 C29.35916504 87.93602051 29.71833008 88.87204102 30.08837891 89.83642578 C33.82303723 99.64103049 37.27794274 109.51980059 40.57958984 119.47802734 C41.39095815 121.92308997 42.20890907 124.36588846 43.02734375 126.80859375 C43.54726092 128.36966319 44.06680705 129.93085626 44.5859375 131.4921875 C44.82960052 132.21912811 45.07326355 132.94606873 45.3243103 133.69503784 C47 138.76993358 47 138.76993358 47 141 C44.33851091 139.72757348 41.92766173 138.34399338 39.5234375 136.63671875 C38.86142334 136.1682251 38.19940918 135.69973145 37.51733398 135.21704102 C36.81036377 134.71229248 36.10339355 134.20754395 35.375 133.6875 C34.63515869 133.162771 33.89531738 132.63804199 33.13305664 132.09741211 C29.1267774 129.24997049 25.13759999 126.37975535 21.16015625 123.4921875 C20.37012207 122.91895752 19.58008789 122.34572754 18.76611328 121.75512695 C17.25598246 120.65744013 15.74772426 119.55717063 14.24169922 118.45385742 C9.61647343 115.08691031 4.89291006 111.96467774 0 109 C-7.72297622 114.50044769 -15.43315886 120.0185815 -23.125 125.5625 C-23.88538574 126.11019043 -24.64577148 126.65788086 -25.42919922 127.22216797 C-30.96226544 131.21966226 -36.41359682 135.31162977 -41.8125 139.48828125 C-44 141 -44 141 -46 141 C-44.66821819 134.49420699 -42.88720151 128.34175395 -40.70703125 122.07421875 C-40.07063747 120.20779344 -39.43457938 118.34125364 -38.79882812 116.47460938 C-37.80214337 113.5654941 -36.80215332 110.65761318 -35.79614258 107.75170898 C-34.81968103 104.92478522 -33.85626676 102.09368019 -32.89453125 99.26171875 C-32.58941116 98.39189865 -32.28429108 97.52207855 -31.96992493 96.62590027 C-31.69601425 95.81438004 -31.42210358 95.0028598 -31.13989258 94.16674805 C-30.89499588 93.45665085 -30.65009918 92.74655365 -30.39778137 92.01493835 C-29.93289004 89.6600584 -30.19014263 88.2447795 -31 86 C-32.37949388 84.57949308 -32.37949388 84.57949308 -34.18359375 83.44140625 C-34.85519531 82.97943848 -35.52679687 82.5174707 -36.21875 82.04150391 C-37.31703125 81.30939697 -37.31703125 81.30939697 -38.4375 80.5625 C-39.98911248 79.49991068 -41.53986498 78.43606472 -43.08984375 77.37109375 C-43.89663574 76.82050293 -44.70342773 76.26991211 -45.53466797 75.70263672 C-50.31007812 72.40458657 -54.98235807 68.96273413 -59.66967773 65.54125977 C-64.14292499 62.29273786 -68.68579214 59.19466995 -73.33007812 56.19482422 C-73.88115234 55.80053223 -74.43222656 55.40624023 -75 55 C-75 54.67 -75 54.34 -75 54 C-55.86 54 -36.72 54 -17 54 C-16.34 51.03 -15.68 48.06 -15 45 C-14.53126235 43.34544106 -14.03807888 41.69727129 -13.50366211 40.06274414 C-13.22675034 39.20898697 -12.94983856 38.3552298 -12.66453552 37.4756012 C-12.37176224 36.58775436 -12.07898895 35.69990753 -11.77734375 34.78515625 C-11.47180069 33.84820419 -11.16625763 32.91125214 -10.85145569 31.94590759 C-10.21048891 29.98306525 -9.5675123 28.02087816 -8.92260742 26.05932617 C-7.93279266 23.04817966 -6.94928782 20.03502759 -5.96679688 17.02148438 C-5.34150934 15.1092561 -4.71587092 13.19714251 -4.08984375 11.28515625 C-3.79504623 10.3831398 -3.50024872 9.48112335 -3.19651794 8.55177307 C-2.92275833 7.72008102 -2.64899872 6.88838898 -2.36694336 6.03149414 C-2.00626015 4.93303917 -2.00626015 4.93303917 -1.63829041 3.81239319 C-1 2 -1 2 0 0 Z " fill="#EFDC0D" transform="translate(1028,537)"/>
<path d="M0 0 C2.25386256 2.25386256 2.71547759 3.67486013 3.69580078 6.67749023 C4.17607224 8.1342643 4.17607224 8.1342643 4.66604614 9.62046814 C5.00570404 10.67254959 5.34536194 11.72463104 5.6953125 12.80859375 C6.04761932 13.88625504 6.39992615 14.96391632 6.76290894 16.07423401 C7.50714509 18.35558191 8.24836594 20.63791534 8.98681641 22.92114258 C10.12000519 26.42206879 11.26433173 29.91920735 12.41015625 33.41601562 C13.13087645 35.62999095 13.85095031 37.84417681 14.5703125 40.05859375 C14.91401886 41.10865097 15.25772522 42.15870819 15.61184692 43.24058533 C15.92572357 44.2149202 16.23960022 45.18925507 16.56298828 46.19311523 C16.98029709 47.47979347 16.98029709 47.47979347 17.40603638 48.79246521 C18 51 18 51 18 54 C36.48 54 54.96 54 74 54 C68.37414966 59.62585034 68.37414966 59.62585034 65.171875 61.91015625 C64.46240723 62.4194165 63.75293945 62.92867676 63.02197266 63.45336914 C62.27222168 63.98438232 61.5224707 64.51539551 60.75 65.0625 C59.96802246 65.62251709 59.18604492 66.18253418 58.38037109 66.75952148 C54.32975775 69.65473129 50.26021392 72.52213912 46.1796875 75.375 C45.41430664 75.91116943 44.64892578 76.44733887 43.86035156 76.99975586 C42.40424828 78.01772409 40.9453896 79.03176587 39.48339844 80.04125977 C38.82114258 80.50330811 38.15888672 80.96535645 37.4765625 81.44140625 C36.611521 82.03997437 36.611521 82.03997437 35.72900391 82.65063477 C33.64509319 84.27697966 31.85599837 86.12072494 30 88 C30.21519791 88.63449066 30.43039581 89.26898132 30.65211487 89.92269897 C32.88310135 96.50535212 35.1036677 103.09145259 37.31811523 109.6796875 C38.14680493 112.1405561 38.97818029 114.60052196 39.81225586 117.05957031 C41.00815628 120.58687255 42.19447562 124.11726994 43.37890625 127.6484375 C43.75592178 128.75367767 44.13293732 129.85891785 44.52137756 130.99765015 C44.86180588 132.01855743 45.20223419 133.03946472 45.55297852 134.09130859 C45.8572023 134.99287689 46.16142609 135.89444519 46.47486877 136.82333374 C47 139 47 139 46 141 C44.8984375 140.20442708 43.796875 139.40885417 42.6953125 138.61328125 C41.97520996 138.0932251 41.25510742 137.57316895 40.51318359 137.03735352 C38.90406562 135.8751762 37.29501757 134.71290208 35.68603516 133.55053711 C31.48500785 130.51582725 27.28292426 127.48260688 23.078125 124.453125 C22.28905762 123.88424561 21.49999023 123.31536621 20.68701172 122.72924805 C19.18907777 121.64937528 17.69073127 120.57007445 16.19189453 119.49145508 C15.49692871 118.99025146 14.80196289 118.48904785 14.0859375 117.97265625 C13.41143555 117.48941895 12.73693359 117.00618164 12.04199219 116.50830078 C10.61705644 115.45578368 9.21812775 114.36753572 7.84082031 113.25341797 C7.14311523 112.69412598 6.44541016 112.13483398 5.7265625 111.55859375 C5.10604004 111.04482178 4.48551758 110.5310498 3.84619141 110.00170898 C2.05168589 108.80470784 2.05168589 108.80470784 -0.015625 109.19848633 C-2.07363025 110.02974017 -3.67573524 110.97047849 -5.4765625 112.265625 C-6.13849609 112.73726074 -6.80042969 113.20889648 -7.48242188 113.69482422 C-8.18947266 114.20803223 -8.89652344 114.72124023 -9.625 115.25 C-10.36556641 115.77996582 -11.10613281 116.30993164 -11.86914062 116.85595703 C-14.25128282 118.56355896 -16.62644215 120.2804892 -19 122 C-19.7950293 122.57524414 -20.59005859 123.15048828 -21.40917969 123.74316406 C-22.19969727 124.31518555 -22.99021484 124.88720703 -23.8046875 125.4765625 C-24.59020996 126.0447168 -25.37573242 126.61287109 -26.18505859 127.19824219 C-27.68190964 128.28244098 -29.17714205 129.36887953 -30.67041016 130.45800781 C-35.69300602 134.10848114 -40.81088529 137.5906606 -46 141 C-44.66465612 134.51270268 -42.91124002 128.34018789 -40.77734375 122.07421875 C-40.47180069 121.16420609 -40.16625763 120.25419342 -39.85145569 119.31660461 C-38.88444024 116.43876604 -37.91130103 113.56304877 -36.9375 110.6875 C-35.96120514 107.79374951 -34.98622248 104.899566 -34.01283264 102.00483704 C-33.40932257 100.21120818 -32.8039606 98.4182011 -32.19651794 96.62590027 C-31.92275833 95.81438004 -31.64899872 95.0028598 -31.36694336 94.16674805 C-31.12648788 93.45665085 -30.88603241 92.74655365 -30.63829041 92.01493835 C-30.00784069 90.02475128 -29.48385471 88.03032338 -29 86 C-29.57782227 85.72397949 -30.15564453 85.44795898 -30.75097656 85.16357422 C-34.6329771 83.15514884 -38.15139924 80.59650941 -41.75 78.125 C-42.58748779 77.55144775 -43.42497559 76.97789551 -44.2878418 76.38696289 C-50.55833905 72.06262507 -56.69468746 67.58354204 -62.74707031 62.95947266 C-65.59600353 60.78448878 -68.44362197 58.67748023 -71.44921875 56.72265625 C-72.29097656 56.15417969 -73.13273438 55.58570313 -74 55 C-74 54.67 -74 54.34 -74 54 C-55.19 54 -36.38 54 -17 54 C-16.67 51.69 -16.34 49.38 -16 47 C-15.55542971 45.31971105 -15.06576395 43.65050682 -14.52539062 41.99853516 C-14.22838257 41.08133698 -13.93137451 40.16413879 -13.62536621 39.21914673 C-13.30555786 38.25221893 -12.98574951 37.28529114 -12.65625 36.2890625 C-12.32709595 35.28032074 -11.99794189 34.27157898 -11.65881348 33.23226929 C-10.96556473 31.11178841 -10.26950703 28.99222403 -9.57080078 26.87353516 C-8.49739803 23.61710628 -7.43357452 20.35766302 -6.37109375 17.09765625 C-5.69587136 15.03627519 -5.02010922 12.97507083 -4.34375 10.9140625 C-4.02394165 9.93498932 -3.7041333 8.95591614 -3.37463379 7.94717407 C-3.07762573 7.04888885 -2.78061768 6.15060364 -2.47460938 5.22509766 C-2.2133728 4.43124664 -1.95213623 3.63739563 -1.6829834 2.81948853 C-1 1 -1 1 0 0 Z " fill="#EFDD0D" transform="translate(1028,42)"/>
<path d="M0 0 C2 1 2 1 3.15625 4.19921875 C3.610911 5.69327672 4.05815911 7.18960064 4.5 8.6875 C6.44431589 15.09055205 8.46938025 21.45901359 10.6171875 27.796875 C10.95734894 28.80310661 10.95734894 28.80310661 11.30438232 29.82966614 C12.22156999 32.54062891 13.13962067 35.25122914 14.06811523 37.95834351 C14.72516476 39.87537691 15.37444333 41.79506832 16.0234375 43.71484375 C16.40419434 44.82980225 16.78495117 45.94476074 17.17724609 47.09350586 C18 50 18 50 18 54 C36.81 54 55.62 54 75 54 C72.39683682 56.60316318 70.43379945 58.54475989 67.5234375 60.55859375 C66.86110107 61.02080322 66.19876465 61.4830127 65.51635742 61.95922852 C64.80970947 62.44705811 64.10306152 62.9348877 63.375 63.4375 C61.85744047 64.4964901 60.34053643 65.55642002 58.82421875 66.6171875 C58.03708496 67.16729492 57.24995117 67.71740234 56.43896484 68.28417969 C52.32972256 71.17504603 48.25798493 74.11742368 44.1875 77.0625 C43.42937012 77.610271 42.67124023 78.15804199 41.89013672 78.72241211 C37.84752071 81.63830295 37.84752071 81.63830295 33.8918457 84.66967773 C32 86 32 86 30 86 C31.93842924 91.9592136 33.87736866 97.91826103 35.81665039 103.87719727 C36.4752945 105.90124824 37.13382501 107.92533618 37.79223633 109.94946289 C38.74269689 112.87135566 39.69357601 115.79311194 40.64453125 118.71484375 C40.9352803 119.60896469 41.22602936 120.50308563 41.52558899 121.42430115 C41.80565292 122.2845137 42.08571686 123.14472626 42.37426758 124.03100586 C42.77532211 125.27199539 42.77532211 125.27199539 43.18447876 126.53805542 C43.73866284 128.21105967 44.31504811 129.87683869 44.91098022 131.53543091 C45.19518829 132.33399506 45.47939636 133.1325592 45.7722168 133.95532227 C46.031978 134.66302261 46.2917392 135.37072296 46.55937195 136.09986877 C47 138 47 138 46 141 C45.04222656 140.27296875 44.08445312 139.5459375 43.09765625 138.796875 C35.17412152 132.8056889 27.1853657 126.93216674 19.03662109 121.25024414 C15.85592115 119.03026504 12.70022647 116.79822852 9.625 114.43359375 C8.655625 113.69238281 7.68625 112.95117188 6.6875 112.1875 C5.86636719 111.54167969 5.04523438 110.89585937 4.19921875 110.23046875 C2.13590375 108.78489991 2.13590375 108.78489991 0.09350586 109.26782227 C-2.18361677 110.06421769 -3.75660457 111.05319545 -5.6953125 112.484375 C-6.40252441 113.00128906 -7.10973633 113.51820313 -7.83837891 114.05078125 C-8.59296387 114.61152344 -9.34754883 115.17226562 -10.125 115.75 C-11.73952283 116.93237429 -13.35410801 118.11466344 -14.96875 119.296875 C-15.79761719 119.90724609 -16.62648437 120.51761719 -17.48046875 121.14648438 C-21.51594399 124.11521771 -25.56903223 127.05935937 -29.625 130 C-30.34574707 130.5269043 -31.06649414 131.05380859 -31.80908203 131.59667969 C-36.41935599 134.94396744 -41.13696793 138.03351888 -46 141 C-44.11213145 133.8260781 -42.01537269 126.76663273 -39.64453125 119.73828125 C-39.33803146 118.82161179 -39.03153168 117.90494232 -38.71574402 116.960495 C-37.75084807 114.07686516 -36.78175628 111.19466676 -35.8125 108.3125 C-35.1514127 106.3392865 -34.490603 104.36597997 -33.83007812 102.39257812 C-32.22325322 97.59397268 -30.61266781 92.79664481 -29 88 C-31.87070088 85.03563841 -34.63937828 82.36819821 -38.08203125 80.08984375 C-38.84185303 79.5805835 -39.6016748 79.07132324 -40.38452148 78.54663086 C-41.18575439 78.01561768 -41.9869873 77.48460449 -42.8125 76.9375 C-49.29339895 72.57273606 -55.68443122 68.123824 -61.9375 63.4375 C-62.59274658 62.94950928 -63.24799316 62.46151855 -63.9230957 61.95874023 C-67.2525191 59.44468583 -70.00761106 56.99238894 -73 54 C-54.52 54 -36.04 54 -17 54 C-16.34 51.03 -15.68 48.06 -15 45 C-14.29480257 42.74289065 -13.54904728 40.49793731 -12.7578125 38.26953125 C-12.33113281 37.05330078 -11.90445313 35.83707031 -11.46484375 34.58398438 C-11.01873747 33.32664246 -10.57212175 32.06948117 -10.125 30.8125 C-7.06368792 22.17814648 -4.21570427 13.57092604 -1.79248047 4.73706055 C-1 2 -1 2 0 0 Z " fill="#EEDE0E" transform="translate(171,42)"/>
<path d="M0 0 C19.94000266 15.82754621 35.62122156 37.37163878 39.50634766 63.07324219 C42.78826036 92.43772424 37.11992854 118.82648176 18.98828125 142.26171875 C16.71931418 144.92174658 14.318815 147.37641449 11.8125 149.8125 C12.204375 148.575 12.59625 147.3375 13 146.0625 C13.60591304 143.97967391 14.20974518 141.89624225 14.8125 139.8125 C15.02132812 139.14138184 15.23015625 138.47026367 15.4453125 137.77880859 C23.8600137 110.48543508 21.26827803 81.70921296 8.1875 56.3125 C3.95898845 48.43907292 -1.39498865 41.58798298 -7.1875 34.8125 C-7.77015625 34.12671875 -8.3528125 33.4409375 -8.953125 32.734375 C-22.30616914 18.30229699 -41.52411753 9.74100837 -60.1875 4.8125 C-60.86224365 4.62558594 -61.5369873 4.43867187 -62.23217773 4.24609375 C-68.6190965 2.62219104 -74.80871749 2.50373018 -81.375 2.5625 C-82.48488281 2.57071777 -83.59476563 2.57893555 -84.73828125 2.58740234 C-97.96180329 2.76740638 -109.19958134 4.79413233 -121.5703125 9.47265625 C-124.14930419 10.42794151 -126.53149955 11.18925739 -129.1875 11.8125 C-117.85796162 -2.97884177 -99.95952774 -11.74998504 -82.1875 -16.1875 C-81.56762207 -16.36120117 -80.94774414 -16.53490234 -80.30908203 -16.71386719 C-52.80025798 -23.80593615 -22.73946286 -16.20854663 0 0 Z " fill="#F0DF0F" transform="translate(700.1875,57.1875)"/>
</svg>
